<?xml version="1.0" encoding="utf-8"?>
<!-- Generator: Adobe Illustrator 23.0.6, SVG Export Plug-In . SVG Version: 6.00 Build 0)  -->
<svg version="1.1" id="Layer_3" xmlns="http://www.w3.org/2000/svg" xmlns:xlink="http://www.w3.org/1999/xlink" x="0px" y="0px"
	 viewBox="0 0 155.2 41.6" style="enable-background:new 0 0 155.2 41.6;" xml:space="preserve">
<style type="text/css">
	.st0{fill:#FFFFFF;}
	.st1{opacity:0.33;fill:#2CA6E0;enable-background:new    ;}
	.st2{opacity:0.66;fill:#2CA6E0;enable-background:new    ;}
	.st3{fill:#2CA6E0;}
	.st4{stroke:#231815;stroke-width:0.5;stroke-miterlimit:10;}
	.st5{font-family:'MarkPro-Light';}
	.st6{font-size:23.8996px;}
	.st7{stroke:#231815;stroke-width:0.25;stroke-miterlimit:10;}
	.st8{font-size:12px;}
</style>
<title>logo</title>
<path class="st0" d="M19.2,30.4c-1.1,0-2.3-0.2-3.3-0.6c-1.9-0.8-3.4-2.4-4.1-4.3c-0.4-1.1-0.6-2.2-0.5-3.3c0-1.6,0.3-3.2,1-4.6
	c0.6-1.4,1.5-2.7,2.6-3.8s2.5-2,3.9-2.6c1.5-0.7,3.2-1,4.9-1c1.8-0.1,3.6,0.4,5.1,1.4c1.3,1,2,2.5,1.9,4.1c0,4.2-3.8,6.3-11.3,6.3
	H18c-0.5,0-1,0-1.5-0.1v0.5c-0.1,1.1,0.3,2.3,0.9,3.2c0.7,0.9,1.7,1.3,2.8,1.2c1,0,2-0.2,2.8-0.7c0.9-0.5,1.6-1.1,2.1-2l4,1.2
	c-0.5,0.8-1.1,1.5-1.8,2.1c-0.7,0.6-1.5,1.2-2.4,1.6c-1,0.4-1.9,0.8-2.9,1C21.1,30.3,20.1,30.4,19.2,30.4z M22.8,13.7
	c-0.7,0-1.4,0.1-2,0.4c-0.6,0.3-1.2,0.6-1.7,1.1s-0.9,1-1.3,1.6c-0.4,0.6-0.7,1.2-0.9,1.9c0.4,0,0.8,0,1.2,0h1.2c1,0,2-0.1,3-0.2
	c0.7-0.1,1.4-0.3,2-0.6c0.4-0.2,0.8-0.5,1.1-0.9c0.2-0.3,0.3-0.8,0.3-1.2c0-0.7-0.3-1.3-0.8-1.6C24.3,13.9,23.5,13.7,22.8,13.7
	L22.8,13.7L22.8,13.7z"/>
<g>
	<polygon class="st1" points="24,31 13.7,25.9 3.4,31 24,41.3 44.6,31 34.3,25.9 	"/>
	<polygon class="st2" points="24,20.7 13.7,15.6 3.4,20.7 24,31 44.6,20.7 34.3,15.6 	"/>
	<polygon class="st3" points="24,20.7 3.4,10.4 24,0.1 44.6,10.4 	"/>
</g>
<text transform="matrix(1.0718 0 0 1 52.299 34.2447)" class="st4 st5 st6">Omega</text>
<text transform="matrix(1 0 0 1 53.2989 14.6)" class="st7 st5 st8">Ethos</text>
</svg>
