<?xml version="1.0" encoding="utf-8"?>
<!-- Generator: Adobe Illustrator 23.0.6, SVG Export Plug-In . SVG Version: 6.00 Build 0)  -->
<svg version="1.1" id="Layer_3" xmlns="http://www.w3.org/2000/svg" xmlns:xlink="http://www.w3.org/1999/xlink" x="0px" y="0px"
	 viewBox="0 0 155.2 41.6" style="enable-background:new 0 0 155.2 41.6;" xml:space="preserve">
<style type="text/css">
	.st0{fill:#FFFFFF;}
	.st1{opacity:0.33;fill:#2CA6E0;enable-background:new    ;}
	.st2{opacity:0.66;fill:#2CA6E0;enable-background:new    ;}
	.st3{fill:#2CA6E0;}
	.st4{stroke:#000000;stroke-width:0.25;stroke-miterlimit:10;}
</style>
<title>logo</title>
<path class="st0" d="M19.2,30.4c-1.1,0-2.3-0.2-3.3-0.6c-1.9-0.8-3.4-2.4-4.1-4.3c-0.4-1.1-0.6-2.2-0.5-3.3c0-1.6,0.3-3.2,1-4.6
	c0.6-1.4,1.5-2.7,2.6-3.8s2.5-2,3.9-2.6c1.5-0.7,3.2-1,4.9-1c1.8-0.1,3.6,0.4,5.1,1.4c1.3,1,2,2.5,1.9,4.1c0,4.2-3.8,6.3-11.3,6.3
	H18c-0.5,0-1,0-1.5-0.1v0.5c-0.1,1.1,0.3,2.3,0.9,3.2c0.7,0.9,1.7,1.3,2.8,1.2c1,0,2-0.2,2.8-0.7c0.9-0.5,1.6-1.1,2.1-2l4,1.2
	c-0.5,0.8-1.1,1.5-1.8,2.1c-0.7,0.6-1.5,1.2-2.4,1.6c-1,0.4-1.9,0.8-2.9,1C21.1,30.3,20.1,30.4,19.2,30.4z M22.8,13.7
	c-0.7,0-1.4,0.1-2,0.4c-0.6,0.3-1.2,0.6-1.7,1.1s-0.9,1-1.3,1.6c-0.4,0.6-0.7,1.2-0.9,1.9c0.4,0,0.8,0,1.2,0h1.2c1,0,2-0.1,3-0.2
	c0.7-0.1,1.4-0.3,2-0.6c0.4-0.2,0.8-0.5,1.1-0.9c0.2-0.3,0.3-0.8,0.3-1.2c0-0.7-0.3-1.3-0.8-1.6C24.3,13.9,23.5,13.7,22.8,13.7
	L22.8,13.7L22.8,13.7z"/>
<g>
	<polygon class="st1" points="24,31 13.7,25.9 3.4,31 24,41.3 44.6,31 34.3,25.9 	"/>
	<polygon class="st2" points="24,20.7 13.7,15.6 3.4,20.7 24,31 44.6,20.7 34.3,15.6 	"/>
	<polygon class="st3" points="24,20.7 3.4,10.4 24,0.1 44.6,10.4 	"/>
</g>
<g>
	<path class="st4" d="M75.4,24.6c0,4.3-3.2,7.4-7.4,7.4s-7.4-3.1-7.4-7.4s3.2-7.4,7.4-7.4S75.4,20.3,75.4,24.6z M61.9,24.6
		c0,3.7,2.7,6.2,6.1,6.2s6.1-2.5,6.1-6.2s-2.7-6.2-6.1-6.2C64.6,18.5,61.9,21,61.9,24.6z"/>
	<path class="st4" d="M94.9,25.9v6h-1.2v-5.6c0-2-1.1-3.2-3.1-3.2c-1.8,0-3.2,1.3-3.2,3.2v5.5h-1.2v-5.6c0-2-1.1-3.2-3.1-3.2
		c-1.8,0-3.2,1.3-3.2,3.2v5.5h-1.2V22h1.2v1.7c0.8-1.3,2.1-1.9,3.5-1.9c1.8,0,3.2,0.8,3.8,2.3c0.7-1.6,2.3-2.3,3.8-2.3
		C93.2,22,94.9,23.5,94.9,25.9z"/>
	<path class="st4" d="M107.1,26.9c0,0.2,0,0.3,0,0.5H99c0.2,2.3,1.8,3.6,3.8,3.6c1.4,0,2.4-0.5,3.3-1.4l0.6,0.8
		c-1.2,1.2-2.6,1.6-4,1.6c-2.8,0-4.9-2-4.9-5c0-2.9,2.1-5,4.8-5C105.1,22,107.1,24,107.1,26.9z M98.9,26.4h6.9
		c-0.2-2-1.5-3.4-3.4-3.4S99.2,24.4,98.9,26.4z"/>
	<path class="st4" d="M117.9,24v-1.9h1.2v9c0,3.2-2.2,4.9-5.1,4.9c-1.6,0-3.1-0.5-4.1-1.4l0.6-0.9c0.9,0.7,2.1,1.2,3.5,1.2
		c2.2,0,3.9-1.2,3.9-3.8v-1.4c-0.8,1.2-2,2-3.8,2c-2.7,0-4.8-2.1-4.8-5s2.1-5,4.8-5C115.9,22,117.1,22.8,117.9,24z M110.5,26.9
		c0,2.2,1.5,3.9,3.7,3.9s3.8-1.7,3.8-3.9s-1.6-3.8-3.8-3.8C112,23.1,110.5,24.8,110.5,26.9z"/>
	<path class="st4" d="M131.9,31.9h-1.2V30c-0.8,1.2-2.1,2-3.8,2c-2.7,0-4.8-2.1-4.8-5s2.1-5,4.8-5c1.8,0,3.1,0.8,3.8,2v-1.9h1.2
		V31.9z M123.2,27c0,2.2,1.6,3.9,3.8,3.9c2.2,0,3.8-1.7,3.8-3.9s-1.6-3.9-3.8-3.9S123.2,24.8,123.2,27z"/>
</g>
<g>
	<path class="st4" d="M99.1,15.6h-5.8V7.2H99v0.7h-5V11h4.9v0.7H94v3.2h5v0.7H99.1z"/>
	<path class="st4" d="M105.1,10.6h-2.6v3.1c0,1,0.5,1.4,1.3,1.4c0.5,0,0.9-0.2,1.3-0.4l0.3,0.5c-0.4,0.3-1,0.6-1.6,0.6
		c-1.2,0-1.9-0.7-1.9-2v-3.1h-1.3V10h1.3V8.1h0.7V10h2.6v0.6H105.1z"/>
	<path class="st4" d="M107.3,10.9c0.4-0.7,1.2-1.1,2-1.1c1.4,0,2.4,0.9,2.4,2.3v3.5H111v-3.2c0-1.1-0.7-1.8-1.8-1.8
		c-1.1,0-1.9,0.8-1.9,1.9v3.2h-0.7V7h0.7C107.3,7,107.3,10.9,107.3,10.9z"/>
	<path class="st4" d="M119.3,12.8c0,1.7-1.3,2.9-2.9,2.9s-2.9-1.2-2.9-2.9s1.3-2.9,2.9-2.9S119.3,11.1,119.3,12.8z M114.1,12.8
		c0,1.3,1,2.3,2.2,2.3c1.3,0,2.2-1,2.2-2.3s-1-2.3-2.2-2.3S114.1,11.5,114.1,12.8z"/>
	<path class="st4" d="M124.8,11c-0.4-0.3-1.1-0.6-1.9-0.6c-0.9,0-1.5,0.4-1.5,1c0,0.5,0.4,0.8,1.3,0.9l0.7,0.1
		c1.2,0.1,1.9,0.6,1.9,1.5c0,1.1-1,1.7-2.4,1.7c-0.8,0-1.7-0.2-2.3-0.7l0.3-0.5c0.4,0.3,1,0.6,2,0.6s1.7-0.3,1.7-1.1
		c0-0.5-0.4-0.8-1.3-0.9l-0.7-0.1c-1.3-0.1-1.8-0.7-1.8-1.5c0-1,0.9-1.7,2.2-1.7c0.9,0,1.7,0.3,2.2,0.6L124.8,11z"/>
	<path class="st4" d="M127.4,10.5V7.7h-1.2V7.2h2.8v0.5h-1.2v2.9h-0.4V10.5z M132.8,10.5V7.9l-1.1,2.3h-0.5l-1.1-2.3v2.6h-0.5V7.2
		h0.7l1.1,2.4l1.1-2.4h0.7v3.3H132.8z"/>
</g>
</svg>
